<?xml version="1.0" encoding="UTF-8"?>
<svg width="44px" height="44px" viewBox="0 0 44 44" version="1.1" xmlns="http://www.w3.org/2000/svg" xmlns:xlink="http://www.w3.org/1999/xlink">
    <!-- Generator: Sketch 55.2 (78181) - https://sketchapp.com -->
    <title>AWS-Cloud-Development-Kit_48_White</title>
    <desc>Created with Sketch.</desc>
    <g id="Page-1" stroke="none" stroke-width="1" fill="none" fill-rule="evenodd">
        <g id="AWS-Product-Icons_White" transform="translate(-138.000000, -326.000000)" fill="#FFFFFF">
            <path d="M182.0005,346.537213 C182.0005,352.031213 178.2195,354.047213 175.9665,354.760213 L175.3625,352.852213 C177.4795,352.184213 180.0005,350.545213 180.0005,346.537213 C180.0005,341.467213 175.8115,340.200213 174.0105,339.890213 C173.4825,339.800213 173.1215,339.311213 173.1875,338.784213 C173.0055,336.506213 171.9485,334.872213 170.3495,334.405213 C169.0245,334.018213 167.6085,334.533213 166.7355,335.717213 C166.5165,336.014213 166.1475,336.164213 165.7835,336.112213 C165.4175,336.057213 165.1115,335.805213 164.9885,335.456213 C164.3575,333.673213 163.4465,332.176213 162.2805,331.006213 C160.8505,329.571213 156.9305,326.488213 151.3915,328.833213 C148.1955,330.186213 145.6925,334.087213 145.6925,337.714213 C145.6925,338.122213 145.7175,338.529213 145.7655,338.922213 C145.8245,339.421213 145.5065,339.887213 145.0195,340.012213 C143.1455,340.489213 140.0005,341.964213 140.0005,346.472213 C140.0005,346.620213 140.0045,346.766213 140.0115,346.908213 C140.1515,349.807213 142.2895,352.298213 145.2085,352.968213 L144.7615,354.917213 C140.9725,354.048213 138.1975,350.795213 138.0135,347.006213 C138.0045,346.832213 138.0005,346.654213 138.0005,346.472213 C138.0005,341.131213 141.5215,339.078213 143.7075,338.319213 C143.6975,338.118213 143.6925,337.916213 143.6925,337.714213 C143.6925,333.271213 146.6675,328.662213 150.6115,326.991213 C155.2315,325.036213 160.1235,326.009213 163.6965,329.594213 C164.7425,330.643213 165.6105,331.903213 166.2875,333.352213 C167.6095,332.355213 169.2965,332.016213 170.9095,332.485213 C173.1975,333.154213 174.7405,335.222213 175.1225,338.080213 C178.5785,338.930213 182.0005,341.527213 182.0005,346.537213 L182.0005,346.537213 Z M173.0005,364.129213 L168.0005,366.986213 L168.0005,360.289213 L173.0005,357.432213 L173.0005,364.129213 Z M167.0005,358.558213 L161.9915,355.706213 L167.0015,352.739213 L172.0095,355.695213 L167.0005,358.558213 Z M159.0005,364.147213 L154.0005,367.003213 L154.0005,360.288213 L159.0005,357.421213 L159.0005,364.147213 Z M146.9625,357.438213 L152.0005,360.292213 L152.0005,366.881213 L146.9625,363.597213 L146.9625,357.438213 Z M159.9815,340.863213 L164.9865,343.724213 L159.9985,346.559213 L155.0135,343.746213 L159.9815,340.863213 Z M166.0005,351.007213 L161.0005,353.969213 L161.0005,348.290213 L166.0005,345.448213 L166.0005,351.007213 Z M159.0005,353.947213 L154.0005,351.005213 L154.0005,345.471213 L159.0005,348.293213 L159.0005,353.947213 Z M152.9975,358.558213 L147.9615,355.706213 L153.0005,352.737213 L158.0095,355.683213 L152.9975,358.558213 Z M166.0005,366.990213 L161.0005,364.146213 L161.0005,357.443213 L166.0005,360.290213 L166.0005,366.990213 Z M174.5085,354.849213 L174.5095,354.848213 L168.0005,351.006213 L168.0005,343.728213 C168.0005,343.372213 167.8115,343.043213 167.5035,342.864213 C167.4845,342.853213 167.4655,342.849213 167.4465,342.840213 L167.4525,342.829213 L160.4745,338.841213 C160.1645,338.663213 159.7835,338.665213 159.4765,338.844213 L152.4985,342.894213 L152.4965,342.895213 C152.1885,343.075213 152.0005,343.403213 152.0005,343.759213 L152.0005,351.005213 L145.4545,354.861213 L145.4555,354.862213 C145.1505,355.042213 144.9625,355.369213 144.9625,355.723213 L144.9625,364.139213 C144.9625,364.477213 145.1335,364.792213 145.4165,364.977213 L152.4545,369.564213 L152.4575,369.559213 C152.4725,369.569213 152.4825,369.582213 152.4985,369.591213 C152.6535,369.682213 152.8265,369.726213 153.0005,369.726213 C153.1715,369.726213 153.3435,369.683213 153.4965,369.595213 L160.0015,365.878213 L166.4985,369.574213 L166.5065,369.578213 L166.5065,369.577213 C166.6595,369.664213 166.8295,369.709213 167.0005,369.709213 C167.1715,369.709213 167.3435,369.665213 167.4965,369.577213 L174.4965,365.577213 C174.8085,365.399213 175.0005,365.068213 175.0005,364.709213 L175.0005,355.709213 C175.0005,355.355213 174.8135,355.028213 174.5085,354.849213 L174.5085,354.849213 Z" id="AWS-Cloud-Development-Kit_48_White"></path>
        </g>
    </g>
</svg>