<?xml version="1.0" encoding="UTF-8"?>
<svg width="15px" height="16px" viewBox="0 0 15 16" version="1.1" xmlns="http://www.w3.org/2000/svg" xmlns:xlink="http://www.w3.org/1999/xlink">
    <!-- Generator: Sketch 55.2 (78181) - https://sketchapp.com -->
    <title>AWS-Cloud-Development-Kit_16_White</title>
    <desc>Created with Sketch.</desc>
    <g id="Page-1" stroke="none" stroke-width="1" fill="none" fill-rule="evenodd">
        <g id="AWS-Product-Icons_White" transform="translate(-41.000000, -335.000000)" fill="#FFFFFF">
            <path d="M54.979,347.673423 L52.489,349.096423 L52.489,345.760423 L54.979,344.338423 L54.979,347.673423 Z M51.988,344.895423 L49.495,343.475423 L51.99,341.998423 L54.484,343.469423 L51.988,344.895423 Z M48,347.683423 L45.509,349.105423 L45.509,345.760423 L48,344.332423 L48,347.683423 Z M42,344.341423 L44.509,345.762423 L44.509,349.043423 L42,347.408423 L42,344.341423 Z M48.491,336.077423 L50.943,337.479423 L48.499,338.734423 L46.055,337.490423 L48.491,336.077423 Z M51.489,341.131423 L49,342.606423 L49,339.601423 L51.489,338.322423 L51.489,341.131423 Z M48,342.595423 L45.509,341.130423 L45.509,338.334423 L48,339.602423 L48,342.595423 Z M45.007,344.895423 L42.5,343.475423 L45.009,341.997423 L47.503,343.464423 L45.007,344.895423 Z M51.489,349.098423 L49,347.682423 L49,344.343423 L51.489,345.761423 L51.489,349.098423 Z M55.733,343.046423 L55.733,343.046423 L55.73,343.044423 L55.73,343.044423 L55.729,343.044423 L52.489,341.131423 L52.489,337.504423 C52.489,337.329423 52.398,337.168423 52.25,337.077423 C52.237,337.069423 52.222,337.071423 52.209,337.065423 L52.215,337.054423 L48.737,335.066423 C48.583,334.977423 48.392,334.978423 48.238,335.067423 L44.758,337.086423 L44.759,337.089423 C44.756,337.091423 44.751,337.090423 44.748,337.092423 C44.6,337.183423 44.509,337.345423 44.509,337.519423 L44.509,341.131423 L41.25,343.051423 L41.249,343.051423 C41.249,343.051423 41.248,343.052423 41.248,343.052423 L41.247,343.053423 L41.247,343.053423 C41.095,343.143423 41,343.307423 41,343.484423 L41,347.679423 C41,347.848423 41.085,348.006423 41.227,348.098423 L44.736,350.385423 L44.74,350.380423 C44.748,350.385423 44.75,350.394423 44.758,350.399423 C44.835,350.444423 44.922,350.466423 45.009,350.466423 C45.095,350.466423 45.18,350.444423 45.257,350.401423 L48.5,348.548423 L51.737,350.389423 C51.738,350.389423 51.738,350.390423 51.738,350.390423 C51.738,350.390423 51.739,350.390423 51.739,350.390423 L51.742,350.392423 L51.742,350.391423 C51.818,350.434423 51.904,350.457423 51.989,350.457423 C52.075,350.457423 52.16,350.435423 52.237,350.391423 L55.727,348.397423 C55.883,348.308423 55.979,348.142423 55.979,347.963423 L55.979,343.476423 C55.979,343.299423 55.885,343.136423 55.733,343.046423 L55.733,343.046423 Z" id="AWS-Cloud-Development-Kit_16_White"></path>
        </g>
    </g>
</svg>