<?xml version="1.0" encoding="UTF-8"?>
<svg width="15px" height="16px" viewBox="0 0 15 16" version="1.1" xmlns="http://www.w3.org/2000/svg" xmlns:xlink="http://www.w3.org/1999/xlink">
    <!-- Generator: Sketch 55.2 (78181) - https://sketchapp.com -->
    <title>AWS-Cloud-Development-Kit_16_Squid</title>
    <desc>Created with Sketch.</desc>
    <g id="Page-1" stroke="none" stroke-width="1" fill="none" fill-rule="evenodd">
        <g id="AWS-Product-Icons_Squid" transform="translate(-46.000000, -334.000000)" fill="#232F3D">
            <path d="M59.9785,346.6733 L57.4885,348.0963 L57.4885,344.7603 L59.9785,343.3383 L59.9785,346.6733 Z M56.9875,343.8953 L54.4945,342.4753 L56.9895,340.9983 L59.4835,342.4693 L56.9875,343.8953 Z M52.9995,346.6833 L50.5085,348.1053 L50.5085,344.7603 L52.9995,343.3323 L52.9995,346.6833 Z M46.9995,343.3413 L49.5085,344.7623 L49.5085,348.0433 L46.9995,346.4083 L46.9995,343.3413 Z M53.4905,335.0773 L55.9425,336.4793 L53.4985,337.7343 L51.0545,336.4903 L53.4905,335.0773 Z M56.4885,340.1313 L53.9995,341.6063 L53.9995,338.6013 L56.4885,337.3223 L56.4885,340.1313 Z M52.9995,341.5953 L50.5085,340.1303 L50.5085,337.3343 L52.9995,338.6023 L52.9995,341.5953 Z M50.0065,343.8953 L47.4995,342.4753 L50.0085,340.9973 L52.5025,342.4643 L50.0065,343.8953 Z M56.4885,348.0983 L53.9995,346.6823 L53.9995,343.3433 L56.4885,344.7613 L56.4885,348.0983 Z M60.7325,342.0463 L60.7325,342.0463 L60.7295,342.0443 L60.7295,342.0443 L60.7285,342.0443 L57.4885,340.1313 L57.4885,336.5043 C57.4885,336.3293 57.3975,336.1683 57.2495,336.0773 C57.2365,336.0693 57.2215,336.0713 57.2085,336.0653 L57.2145,336.0543 L53.7365,334.0663 C53.5825,333.9773 53.3915,333.9783 53.2375,334.0673 L49.7575,336.0863 L49.7585,336.0893 C49.7555,336.0913 49.7505,336.0903 49.7475,336.0923 C49.5995,336.1833 49.5085,336.3453 49.5085,336.5193 L49.5085,340.1313 L46.2495,342.0513 L46.2485,342.0513 C46.2485,342.0513 46.2475,342.0523 46.2475,342.0523 L46.2465,342.0533 L46.2465,342.0533 C46.0945,342.1433 45.9995,342.3073 45.9995,342.4843 L45.9995,346.6793 C45.9995,346.8483 46.0845,347.0063 46.2265,347.0983 L49.7355,349.3853 L49.7395,349.3803 C49.7475,349.3853 49.7495,349.3943 49.7575,349.3993 C49.8345,349.4443 49.9215,349.4663 50.0085,349.4663 C50.0945,349.4663 50.1795,349.4443 50.2565,349.4013 L53.4995,347.5483 L56.7365,349.3893 C56.7375,349.3893 56.7375,349.3903 56.7375,349.3903 C56.7375,349.3903 56.7385,349.3903 56.7385,349.3903 L56.7415,349.3923 L56.7415,349.3913 C56.8175,349.4343 56.9035,349.4573 56.9885,349.4573 C57.0745,349.4573 57.1595,349.4353 57.2365,349.3913 L60.7265,347.3973 C60.8825,347.3083 60.9785,347.1423 60.9785,346.9633 L60.9785,342.4763 C60.9785,342.2993 60.8845,342.1363 60.7325,342.0463 L60.7325,342.0463 Z" id="AWS-Cloud-Development-Kit_16_Squid"></path>
        </g>
    </g>
</svg>