<?xml version="1.0" encoding="UTF-8"?>
<svg width="57px" height="55px" viewBox="0 0 57 55" version="1.1" xmlns="http://www.w3.org/2000/svg" xmlns:xlink="http://www.w3.org/1999/xlink">
    <!-- Generator: Sketch 55.2 (78181) - https://sketchapp.com -->
    <title>AWS-Cloud-Development-Kit_64_Squid</title>
    <desc>Created with Sketch.</desc>
    <g id="Page-1" stroke="none" stroke-width="1" fill="none" fill-rule="evenodd">
        <g id="AWS-Product-Icons_Squid" transform="translate(-216.000000, -315.000000)" fill="#232F3D">
            <path d="M272.417,341.3123 C272.417,348.2433 267.648,350.7853 264.806,351.6843 L264.202,349.7773 C267.037,348.8813 270.417,346.6853 270.417,341.3123 C270.417,334.5193 264.817,332.8233 262.41,332.4093 C261.873,332.3173 261.51,331.8123 261.59,331.2743 L261.59,331.2743 C261.352,328.1793 259.902,325.9533 257.699,325.3093 C255.869,324.7753 253.903,325.4833 252.697,327.1173 C252.478,327.4143 252.108,327.5653 251.745,327.5123 C251.379,327.4583 251.073,327.2053 250.95,326.8563 C250.119,324.5063 248.915,322.5293 247.372,320.9803 C245.478,319.0803 240.282,314.9943 232.938,318.1023 C228.697,319.8983 225.375,325.0723 225.375,329.8803 C225.375,330.4153 225.407,330.9543 225.471,331.4833 C225.53,331.9813 225.211,332.4463 224.725,332.5703 C222.213,333.2113 218,335.1873 218,341.2283 C218,341.4243 218.005,341.6163 218.015,341.8053 C218.203,345.6943 221.065,349.0353 224.977,349.9323 L224.529,351.8813 C219.749,350.7843 216.248,346.6823 216.017,341.9053 C216.005,341.6873 216,341.4593 216,341.2283 C216,334.3193 220.672,331.7713 223.407,330.8733 C223.386,330.5423 223.375,330.2103 223.375,329.8803 C223.375,324.2363 227.151,318.3813 232.159,316.2603 C238.027,313.7743 244.245,315.0113 248.788,319.5683 C250.201,320.9863 251.359,322.7063 252.242,324.6973 C253.923,323.2843 256.146,322.7723 258.26,323.3903 C261.16,324.2373 263.101,326.9093 263.534,330.5983 C266.371,331.2613 272.417,333.5853 272.417,341.3123 L272.417,341.3123 Z M261.233,363.3263 L254.246,367.2133 L254.246,358.5653 L261.233,354.6223 L261.233,363.3263 Z M243.209,363.3013 L236.237,367.2903 L236.237,358.5313 L243.209,354.6003 L243.209,363.3013 Z M235.234,356.8013 L228.26,352.9153 L235.246,349.0293 L242.165,352.8923 L235.234,356.8013 Z M227.204,354.6163 L234.237,358.5353 L234.237,367.2953 L227.204,363.2993 L227.204,354.6163 Z M244.238,334.0583 L251.171,337.9043 L244.209,341.7703 L237.302,337.9243 L244.238,334.0583 Z M246.256,352.8943 L253.23,349.0133 L260.192,352.9133 L253.246,356.8333 L246.256,352.8943 Z M245.209,354.5993 L252.246,358.5653 L252.246,367.2133 L245.209,363.2933 L245.209,354.5993 Z M252.232,347.2803 L245.209,351.1873 L245.209,343.5023 L252.232,339.6033 L252.232,347.2803 Z M236.247,339.6253 L243.209,343.5013 L243.209,351.1843 L236.247,347.2973 L236.247,339.6253 Z M262.737,352.0463 C262.732,352.0433 262.726,352.0423 262.721,352.0393 L262.722,352.0373 L254.232,347.2823 L254.232,337.9043 C254.232,337.5493 254.045,337.2223 253.739,337.0423 C253.731,337.0383 253.724,337.0363 253.716,337.0323 L253.718,337.0293 L244.723,332.0403 C244.419,331.8733 244.051,331.8733 243.751,332.0413 L234.761,337.0513 L234.762,337.0533 C234.755,337.0573 234.747,337.0583 234.74,337.0623 C234.435,337.2423 234.247,337.5703 234.247,337.9243 L234.247,347.2953 L225.718,352.0403 L225.72,352.0423 C225.712,352.0463 225.704,352.0483 225.697,352.0523 C225.392,352.2313 225.204,352.5603 225.204,352.9143 L225.204,363.8813 C225.204,364.2413 225.397,364.5733 225.71,364.7503 L234.735,369.8793 L234.743,369.8843 L234.743,369.8833 C234.897,369.9703 235.067,370.0143 235.237,370.0143 C235.408,370.0143 235.58,369.9703 235.734,369.8823 L244.216,365.0293 L252.76,369.7883 L252.761,369.7853 C252.912,369.8693 253.078,369.9143 253.246,369.9143 C253.413,369.9143 253.581,369.8723 253.732,369.7883 L262.72,364.7883 C263.037,364.6113 263.233,364.2773 263.233,363.9143 L263.233,352.9103 C263.233,352.5543 263.045,352.2263 262.737,352.0463 L262.737,352.0463 Z" id="AWS-Cloud-Development-Kit_64_Squid"></path>
        </g>
    </g>
</svg>