<?xml version="1.0" encoding="UTF-8"?>
<svg width="44px" height="44px" viewBox="0 0 44 44" version="1.1" xmlns="http://www.w3.org/2000/svg" xmlns:xlink="http://www.w3.org/1999/xlink">
    <!-- Generator: Sketch 55.2 (78181) - https://sketchapp.com -->
    <title>AWS-Cloud-Development-Kit_48_Squid</title>
    <desc>Created with Sketch.</desc>
    <g id="Page-1" stroke="none" stroke-width="1" fill="none" fill-rule="evenodd">
        <g id="AWS-Product-Icons_Squid" transform="translate(-143.000000, -325.000000)" fill="#232F3D">
            <path d="M187,345.53709 C187,351.03109 183.219,353.04709 180.966,353.76009 L180.362,351.85209 C182.479,351.18409 185,349.54509 185,345.53709 C185,340.46709 180.811,339.20009 179.01,338.89009 C178.482,338.80009 178.121,338.31109 178.187,337.78409 C178.005,335.50609 176.948,333.87209 175.349,333.40509 C174.024,333.01809 172.608,333.53309 171.735,334.71709 C171.516,335.01409 171.147,335.16409 170.783,335.11209 C170.417,335.05709 170.111,334.80509 169.988,334.45609 C169.357,332.67309 168.446,331.17609 167.28,330.00609 C165.85,328.57109 161.93,325.48809 156.391,327.83309 C153.195,329.18609 150.692,333.08709 150.692,336.71409 C150.692,337.12209 150.717,337.52909 150.765,337.92209 C150.824,338.42109 150.506,338.88709 150.019,339.01209 C148.145,339.48909 145,340.96409 145,345.47209 C145,345.62009 145.004,345.76609 145.011,345.90809 C145.151,348.80709 147.289,351.29809 150.208,351.96809 L149.761,353.91709 C145.972,353.04809 143.197,349.79509 143.013,346.00609 C143.004,345.83209 143,345.65409 143,345.47209 C143,340.13109 146.521,338.07809 148.707,337.31909 C148.697,337.11809 148.692,336.91609 148.692,336.71409 C148.692,332.27109 151.667,327.66209 155.611,325.99109 C160.231,324.03609 165.123,325.00909 168.696,328.59409 C169.742,329.64309 170.61,330.90309 171.287,332.35209 C172.609,331.35509 174.296,331.01609 175.909,331.48509 C178.197,332.15409 179.74,334.22209 180.122,337.08009 C183.578,337.93009 187,340.52709 187,345.53709 L187,345.53709 Z M178,363.12909 L173,365.98609 L173,359.28909 L178,356.43209 L178,363.12909 Z M172,357.55809 L166.991,354.70609 L172.001,351.73909 L177.009,354.69509 L172,357.55809 Z M164,363.14709 L159,366.00309 L159,359.28809 L164,356.42109 L164,363.14709 Z M151.962,356.43809 L157,359.29209 L157,365.88109 L151.962,362.59709 L151.962,356.43809 Z M164.981,339.86309 L169.986,342.72409 L164.998,345.55909 L160.013,342.74609 L164.981,339.86309 Z M171,350.00709 L166,352.96909 L166,347.29009 L171,344.44809 L171,350.00709 Z M164,352.94709 L159,350.00509 L159,344.47109 L164,347.29309 L164,352.94709 Z M157.997,357.55809 L152.961,354.70609 L158,351.73709 L163.009,354.68309 L157.997,357.55809 Z M171,365.99009 L166,363.14609 L166,356.44309 L171,359.29009 L171,365.99009 Z M179.508,353.84909 L179.509,353.84809 L173,350.00609 L173,342.72809 C173,342.37209 172.811,342.04309 172.503,341.86409 C172.484,341.85309 172.465,341.84909 172.446,341.84009 L172.452,341.82909 L165.474,337.84109 C165.164,337.66309 164.783,337.66509 164.476,337.84409 L157.498,341.89409 L157.496,341.89509 C157.188,342.07509 157,342.40309 157,342.75909 L157,350.00509 L150.454,353.86109 L150.455,353.86209 C150.15,354.04209 149.962,354.36909 149.962,354.72309 L149.962,363.13909 C149.962,363.47709 150.133,363.79209 150.416,363.97709 L157.454,368.56409 L157.457,368.55909 C157.472,368.56909 157.482,368.58209 157.498,368.59109 C157.653,368.68209 157.826,368.72609 158,368.72609 C158.171,368.72609 158.343,368.68309 158.496,368.59509 L165.001,364.87809 L171.498,368.57409 L171.506,368.57809 L171.506,368.57709 C171.659,368.66409 171.829,368.70909 172,368.70909 C172.171,368.70909 172.343,368.66509 172.496,368.57709 L179.496,364.57709 C179.808,364.39909 180,364.06809 180,363.70909 L180,354.70909 C180,354.35509 179.813,354.02809 179.508,353.84909 L179.508,353.84909 Z" id="AWS-Cloud-Development-Kit_48_Squid"></path>
        </g>
    </g>
</svg>