<?xml version="1.0" encoding="UTF-8"?>
<svg width="28px" height="28px" viewBox="0 0 28 28" version="1.1" xmlns="http://www.w3.org/2000/svg" xmlns:xlink="http://www.w3.org/1999/xlink">
    <!-- Generator: Sketch 55.2 (78181) - https://sketchapp.com -->
    <title>AWS-Cloud-Development-Kit_32_Squid</title>
    <desc>Created with Sketch.</desc>
    <g id="Page-1" stroke="none" stroke-width="1" fill="none" fill-rule="evenodd">
        <g id="AWS-Product-Icons_Squid" transform="translate(-89.000000, -328.000000)" fill="#232F3D">
            <path d="M116.9199,341.0214 C116.9199,344.4524 114.5589,345.7114 113.1499,346.1574 L112.8499,345.2044 C114.2499,344.7604 115.9199,343.6754 115.9199,341.0214 C115.9199,337.6654 113.1519,336.8274 111.9619,336.6224 C111.6919,336.5764 111.5099,336.3214 111.5529,336.0504 C111.4519,334.5524 110.7329,333.4314 109.6319,333.1104 C108.7249,332.8454 107.7579,333.1964 107.1629,334.0024 C107.0529,334.1514 106.8759,334.2234 106.6869,334.2004 C106.5039,334.1724 106.3509,334.0464 106.2889,333.8724 C105.8789,332.7094 105.2839,331.7324 104.5209,330.9674 C103.5839,330.0274 101.0099,328.0104 97.3879,329.5444 C95.2909,330.4324 93.6489,332.9894 93.6489,335.3664 C93.6489,335.6344 93.6649,335.8994 93.6949,336.1584 C93.7259,336.4074 93.5659,336.6404 93.3229,336.7024 C92.0819,337.0184 89.9999,337.9954 89.9999,340.9794 C89.9999,341.0774 90.0029,341.1734 90.0069,341.2674 C90.1009,343.1864 91.5159,344.8374 93.4469,345.2804 L93.2239,346.2554 C90.8569,345.7124 89.1229,343.6804 89.0089,341.3154 C89.0029,341.2054 88.9999,341.0934 88.9999,340.9794 C88.9999,337.5624 91.3089,336.2994 92.6639,335.8534 C92.6529,335.6924 92.6489,335.5294 92.6489,335.3664 C92.6489,332.5724 94.5179,329.6734 96.9969,328.6234 C99.9019,327.3944 102.9809,328.0044 105.2299,330.2614 C105.9269,330.9614 106.4989,331.8114 106.9359,332.7934 C107.7679,332.0974 108.8669,331.8454 109.9129,332.1504 C111.3489,332.5704 112.3099,333.8924 112.5239,335.7174 C113.9319,336.0464 116.9199,337.1994 116.9199,341.0214 L116.9199,341.0214 Z M111.4329,352.5364 L107.9349,354.1144 L107.9449,349.2144 L111.4329,347.6684 L111.4329,352.5364 Z M102.4599,352.4904 L98.9739,354.1064 L98.9739,349.2314 L102.4599,347.6644 L102.4599,352.4904 Z M98.4719,348.3614 L95.1799,346.9024 L98.4729,345.3984 L101.7469,346.8884 L98.4719,348.3614 Z M94.4619,347.6774 L97.9739,349.2334 L97.9739,354.1144 L94.4619,352.5264 L94.4619,347.6774 Z M102.9449,337.4264 L106.2119,338.8814 L102.9599,340.3504 L99.6859,338.8804 L102.9449,337.4264 Z M104.1759,346.8984 L107.4339,345.3964 L110.7139,346.8934 L107.4459,348.3424 L104.1759,346.8984 Z M103.4599,347.6764 L106.9449,349.2144 L106.9349,354.1054 L103.4599,352.4904 L103.4599,347.6764 Z M106.9329,344.5254 L103.4599,346.1274 L103.4599,341.2214 L106.9329,339.6534 L106.9329,344.5254 Z M98.9719,344.5274 L98.9629,339.6524 L102.4599,341.2224 L102.4599,346.1144 L98.9719,344.5274 Z M112.1359,346.4574 L112.1409,346.4454 L107.9329,344.5244 L107.9329,338.8784 C107.9329,338.7084 107.8469,338.5504 107.7039,338.4584 C107.6819,338.4444 107.6539,338.4444 107.6309,338.4344 L107.6359,338.4224 L103.1489,336.4224 C103.0199,336.3644 102.8719,336.3644 102.7409,336.4224 L98.2569,338.4224 L98.2629,338.4344 C98.2379,338.4454 98.2109,338.4444 98.1889,338.4594 C98.0469,338.5514 97.9609,338.7094 97.9609,338.8794 L97.9719,344.5284 L93.7539,346.4544 L93.7589,346.4664 C93.7359,346.4764 93.7099,346.4764 93.6899,346.4904 C93.5479,346.5824 93.4619,346.7404 93.4619,346.9094 L93.4619,352.8494 C93.4619,353.0454 93.5769,353.2234 93.7559,353.3044 L98.2679,355.3444 L98.2739,355.3314 C98.3389,355.3594 98.4039,355.3894 98.4739,355.3894 C98.5449,355.3894 98.6169,355.3744 98.6839,355.3424 L102.9589,353.3604 L107.2219,355.3424 L107.2289,355.3294 C107.2939,355.3594 107.3609,355.3894 107.4329,355.3894 C107.5029,355.3894 107.5719,355.3744 107.6389,355.3444 L112.1389,353.3144 C112.3169,353.2344 112.4329,353.0564 112.4329,352.8594 L112.4329,346.9004 C112.4329,346.7314 112.3469,346.5734 112.2049,346.4814 C112.1839,346.4674 112.1579,346.4674 112.1359,346.4574 L112.1359,346.4574 Z" id="AWS-Cloud-Development-Kit_32_Squid"></path>
        </g>
    </g>
</svg>