<?xml version="1.0" encoding="UTF-8"?>
<svg width="28px" height="28px" viewBox="0 0 28 28" version="1.1" xmlns="http://www.w3.org/2000/svg" xmlns:xlink="http://www.w3.org/1999/xlink">
    <!-- Generator: Sketch 55.2 (78181) - https://sketchapp.com -->
    <title>AWS-Cloud-Development-Kit_32_White</title>
    <desc>Created with Sketch.</desc>
    <g id="Page-1" stroke="none" stroke-width="1" fill="none" fill-rule="evenodd">
        <g id="AWS-Product-Icons_White" transform="translate(-84.000000, -329.000000)" fill="#FFFFFF">
            <path d="M111.9204,342.021523 C111.9204,345.452523 109.5594,346.711523 108.1504,347.157523 L107.8504,346.204523 C109.2504,345.760523 110.9204,344.675523 110.9204,342.021523 C110.9204,338.665523 108.1524,337.827523 106.9624,337.622523 C106.6924,337.576523 106.5104,337.321523 106.5534,337.050523 C106.4524,335.552523 105.7334,334.431523 104.6324,334.110523 C103.7254,333.845523 102.7584,334.196523 102.1634,335.002523 C102.0534,335.151523 101.8764,335.223523 101.6874,335.200523 C101.5044,335.172523 101.3514,335.046523 101.2894,334.872523 C100.8794,333.709523 100.2844,332.732523 99.5214,331.967523 C98.5844,331.027523 96.0104,329.010523 92.3884,330.544523 C90.2914,331.432523 88.6494,333.989523 88.6494,336.366523 C88.6494,336.634523 88.6654,336.899523 88.6954,337.158523 C88.7264,337.407523 88.5664,337.640523 88.3234,337.702523 C87.0824,338.018523 85.0004,338.995523 85.0004,341.979523 C85.0004,342.077523 85.0034,342.173523 85.0074,342.267523 C85.1014,344.186523 86.5164,345.837523 88.4474,346.280523 L88.2244,347.255523 C85.8574,346.712523 84.1234,344.680523 84.0094,342.315523 C84.0034,342.205523 84.0004,342.093523 84.0004,341.979523 C84.0004,338.562523 86.3094,337.299523 87.6644,336.853523 C87.6534,336.692523 87.6494,336.529523 87.6494,336.366523 C87.6494,333.572523 89.5184,330.673523 91.9974,329.623523 C94.9024,328.394523 97.9814,329.004523 100.2304,331.261523 C100.9274,331.961523 101.4994,332.811523 101.9364,333.793523 C102.7684,333.097523 103.8674,332.845523 104.9134,333.150523 C106.3494,333.570523 107.3104,334.892523 107.5244,336.717523 C108.9324,337.046523 111.9204,338.199523 111.9204,342.021523 L111.9204,342.021523 Z M106.4334,353.536523 L102.9354,355.114523 L102.9454,350.214523 L106.4334,348.668523 L106.4334,353.536523 Z M97.4604,353.490523 L93.9744,355.106523 L93.9744,350.231523 L97.4604,348.664523 L97.4604,353.490523 Z M93.4724,349.361523 L90.1804,347.902523 L93.4734,346.398523 L96.7474,347.888523 L93.4724,349.361523 Z M89.4624,348.677523 L92.9744,350.233523 L92.9744,355.114523 L89.4624,353.526523 L89.4624,348.677523 Z M97.9454,338.426523 L101.2124,339.881523 L97.9604,341.350523 L94.6864,339.880523 L97.9454,338.426523 Z M99.1764,347.898523 L102.4344,346.396523 L105.7144,347.893523 L102.4464,349.342523 L99.1764,347.898523 Z M98.4604,348.676523 L101.9454,350.214523 L101.9354,355.105523 L98.4604,353.490523 L98.4604,348.676523 Z M101.9334,345.525523 L98.4604,347.127523 L98.4604,342.221523 L101.9334,340.653523 L101.9334,345.525523 Z M93.9724,345.527523 L93.9634,340.652523 L97.4604,342.222523 L97.4604,347.114523 L93.9724,345.527523 Z M107.1364,347.457523 L107.1414,347.445523 L102.9334,345.524523 L102.9334,339.878523 C102.9334,339.708523 102.8474,339.550523 102.7044,339.458523 C102.6824,339.444523 102.6544,339.444523 102.6314,339.434523 L102.6364,339.422523 L98.1494,337.422523 C98.0204,337.364523 97.8724,337.364523 97.7414,337.422523 L93.2574,339.422523 L93.2634,339.434523 C93.2384,339.445523 93.2114,339.444523 93.1894,339.459523 C93.0474,339.551523 92.9614,339.709523 92.9614,339.879523 L92.9724,345.528523 L88.7544,347.454523 L88.7594,347.466523 C88.7364,347.476523 88.7104,347.476523 88.6904,347.490523 C88.5484,347.582523 88.4624,347.740523 88.4624,347.909523 L88.4624,353.849523 C88.4624,354.045523 88.5774,354.223523 88.7564,354.304523 L93.2684,356.344523 L93.2744,356.331523 C93.3394,356.359523 93.4044,356.389523 93.4744,356.389523 C93.5454,356.389523 93.6174,356.374523 93.6844,356.342523 L97.9594,354.360523 L102.2224,356.342523 L102.2294,356.329523 C102.2944,356.359523 102.3614,356.389523 102.4334,356.389523 C102.5034,356.389523 102.5724,356.374523 102.6394,356.344523 L107.1394,354.314523 C107.3174,354.234523 107.4334,354.056523 107.4334,353.859523 L107.4334,347.900523 C107.4334,347.731523 107.3474,347.573523 107.2054,347.481523 C107.1844,347.467523 107.1584,347.467523 107.1364,347.457523 L107.1364,347.457523 Z" id="AWS-Cloud-Development-Kit_32_White"></path>
        </g>
    </g>
</svg>