<?xml version="1.0" encoding="UTF-8"?>
<svg width="57px" height="55px" viewBox="0 0 57 55" version="1.1" xmlns="http://www.w3.org/2000/svg" xmlns:xlink="http://www.w3.org/1999/xlink">
    <!-- Generator: Sketch 55.2 (78181) - https://sketchapp.com -->
    <title>AWS-Cloud-Development-Kit_64_White</title>
    <desc>Created with Sketch.</desc>
    <g id="Page-1" stroke="none" stroke-width="1" fill="none" fill-rule="evenodd">
        <g id="AWS-Product-Icons_White" transform="translate(-211.000000, -316.000000)" fill="#FFFFFF">
            <path d="M267.4175,342.312423 C267.4175,349.243423 262.6485,351.785423 259.8065,352.684423 L259.2025,350.777423 C262.0375,349.881423 265.4175,347.685423 265.4175,342.312423 C265.4175,335.519423 259.8175,333.823423 257.4105,333.409423 C256.8735,333.317423 256.5105,332.812423 256.5905,332.274423 L256.5905,332.274423 C256.3525,329.179423 254.9025,326.953423 252.6995,326.309423 C250.8695,325.775423 248.9035,326.483423 247.6975,328.117423 C247.4785,328.414423 247.1085,328.565423 246.7455,328.512423 C246.3795,328.458423 246.0735,328.205423 245.9505,327.856423 C245.1195,325.506423 243.9155,323.529423 242.3725,321.980423 C240.4785,320.080423 235.2825,315.994423 227.9385,319.102423 C223.6975,320.898423 220.3755,326.072423 220.3755,330.880423 C220.3755,331.415423 220.4075,331.954423 220.4715,332.483423 C220.5305,332.981423 220.2115,333.446423 219.7255,333.570423 C217.2135,334.211423 213.0005,336.187423 213.0005,342.228423 C213.0005,342.424423 213.0055,342.616423 213.0155,342.805423 C213.2035,346.694423 216.0655,350.035423 219.9775,350.932423 L219.5295,352.881423 C214.7495,351.784423 211.2485,347.682423 211.0175,342.905423 C211.0055,342.687423 211.0005,342.459423 211.0005,342.228423 C211.0005,335.319423 215.6725,332.771423 218.4075,331.873423 C218.3865,331.542423 218.3755,331.210423 218.3755,330.880423 C218.3755,325.236423 222.1515,319.381423 227.1595,317.260423 C233.0275,314.774423 239.2455,316.011423 243.7885,320.568423 C245.2015,321.986423 246.3595,323.706423 247.2425,325.697423 C248.9235,324.284423 251.1465,323.772423 253.2605,324.390423 C256.1605,325.237423 258.1015,327.909423 258.5345,331.598423 C261.3715,332.261423 267.4175,334.585423 267.4175,342.312423 L267.4175,342.312423 Z M256.2335,364.326423 L249.2465,368.213423 L249.2465,359.565423 L256.2335,355.622423 L256.2335,364.326423 Z M238.2095,364.301423 L231.2375,368.290423 L231.2375,359.531423 L238.2095,355.600423 L238.2095,364.301423 Z M230.2345,357.801423 L223.2605,353.915423 L230.2465,350.029423 L237.1655,353.892423 L230.2345,357.801423 Z M222.2045,355.616423 L229.2375,359.535423 L229.2375,368.295423 L222.2045,364.299423 L222.2045,355.616423 Z M239.2385,335.058423 L246.1715,338.904423 L239.2095,342.770423 L232.3025,338.924423 L239.2385,335.058423 Z M241.2565,353.894423 L248.2305,350.013423 L255.1925,353.913423 L248.2465,357.833423 L241.2565,353.894423 Z M240.2095,355.599423 L247.2465,359.565423 L247.2465,368.213423 L240.2095,364.293423 L240.2095,355.599423 Z M247.2325,348.280423 L240.2095,352.187423 L240.2095,344.502423 L247.2325,340.603423 L247.2325,348.280423 Z M231.2475,340.625423 L238.2095,344.501423 L238.2095,352.184423 L231.2475,348.297423 L231.2475,340.625423 Z M257.7375,353.046423 C257.7325,353.043423 257.7265,353.042423 257.7215,353.039423 L257.7225,353.037423 L249.2325,348.282423 L249.2325,338.904423 C249.2325,338.549423 249.0455,338.222423 248.7395,338.042423 C248.7315,338.038423 248.7245,338.036423 248.7165,338.032423 L248.7185,338.029423 L239.7235,333.040423 C239.4195,332.873423 239.0515,332.873423 238.7515,333.041423 L229.7615,338.051423 L229.7625,338.053423 C229.7555,338.057423 229.7475,338.058423 229.7405,338.062423 C229.4355,338.242423 229.2475,338.570423 229.2475,338.924423 L229.2475,348.295423 L220.7185,353.040423 L220.7205,353.042423 C220.7125,353.046423 220.7045,353.048423 220.6975,353.052423 C220.3925,353.231423 220.2045,353.560423 220.2045,353.914423 L220.2045,364.881423 C220.2045,365.241423 220.3975,365.573423 220.7105,365.750423 L229.7355,370.879423 L229.7435,370.884423 L229.7435,370.883423 C229.8975,370.970423 230.0675,371.014423 230.2375,371.014423 C230.4085,371.014423 230.5805,370.970423 230.7345,370.882423 L239.2165,366.029423 L247.7605,370.788423 L247.7615,370.785423 C247.9125,370.869423 248.0785,370.914423 248.2465,370.914423 C248.4135,370.914423 248.5815,370.872423 248.7325,370.788423 L257.7205,365.788423 C258.0375,365.611423 258.2335,365.277423 258.2335,364.914423 L258.2335,353.910423 C258.2335,353.554423 258.0455,353.226423 257.7375,353.046423 L257.7375,353.046423 Z" id="AWS-Cloud-Development-Kit_64_White"></path>
        </g>
    </g>
</svg>